<svg width="620" height="538" viewBox="0 0 620 538" fill="none" xmlns="http://www.w3.org/2000/svg">
<path d="M101.014 340.994C111.804 353.424 99.3749 374.457 97.7359 387.296C95.6871 403.413 98.2822 421.579 98.2822 438.106C111.941 433.052 126.145 428.955 139.258 421.852C144.038 419.257 149.775 414.34 155.648 415.16C161.248 416.116 163.433 422.399 166.301 427.179C174.633 440.837 180.096 454.769 185.833 470.067C192.252 487.003 200.584 503.12 208.096 519.647C224.35 505.305 242.106 492.057 258.222 476.349C272.017 462.828 283.217 437.833 301.11 430.594C319.139 423.218 334.027 444.525 345.227 457.637C360.388 475.257 375.958 492.193 391.256 508.72C404.095 491.783 416.797 474.71 429.363 457.637C434.143 451.218 439.197 444.935 443.567 438.242C448.211 431.14 452.309 422.535 458.592 417.072C472.114 405.189 488.777 418.984 501.752 422.125C517.05 425.95 533.44 426.36 549.01 428.272C542.454 403.687 535.215 378.965 529.069 353.287C527.567 347.141 525.791 341.677 522.923 336.077C520.601 331.707 516.367 325.424 518.416 319.824C521.967 309.99 536.854 311.629 543.684 306.575C565.127 290.868 586.981 276.663 608.561 263.414C593.537 251.668 579.059 238.829 564.035 225.99C556.932 219.844 549.693 213.151 541.635 208.371C535.762 204.82 527.157 202.498 523.196 195.805C518.279 187.61 527.84 180.098 530.435 173.132C533.576 164.664 534.669 155.649 536.991 147.045C542.318 128.059 548.464 109.621 553.654 91.1817C545.596 92.5475 537.537 94.4597 529.342 96.0987C521.967 97.6011 514.181 97.7377 506.943 99.923C493.694 104.021 479.762 117.542 464.738 115.084C451.353 112.899 442.065 95.6889 434.689 84.0793C424.992 69.1916 414.611 54.5771 404.777 39.6894C393.168 50.6161 384.563 66.1867 372.134 76.4305C366.534 81.0744 359.568 82.85 354.241 88.1768C349.871 92.6841 345.09 100.196 339.354 93.367C335.119 88.3134 331.978 79.572 328.7 73.6989C325.012 67.1428 321.324 60.5868 317.773 54.0307C309.851 39.826 301.929 25.7578 294.008 11.8262C282.125 28.4895 270.242 45.2893 258.769 62.4989C253.305 70.5574 247.432 78.2061 243.881 87.6305C241.559 93.7767 239.101 103.201 232.818 105.66C219.023 110.986 206.457 87.9036 197.033 80.9378C182.282 69.8745 166.301 60.7234 150.867 51.982C147.179 67.6891 141.443 82.85 139.121 98.6938C137.482 110.167 138.575 126.284 131.336 135.845C123.96 145.542 111.394 141.172 102.38 140.352C88.7213 138.986 74.7897 139.669 60.9947 140.625C64.2727 149.503 67.9605 158.245 70.9654 167.532C73.8337 176.41 75.7458 185.835 79.4336 194.439C85.3067 208.234 92.9555 224.215 84.3506 239.649C65.0923 273.795 35.0437 298.243 12.2341 325.014C29.5803 328.155 46.9265 332.799 64.6825 333.209C75.1995 333.482 92.5457 331.16 101.014 340.994Z" fill="#FFDD00"/>
<path d="M213.696 83.1232C217.384 85.8549 221.891 90.2256 226.399 90.9085C235.003 92.2744 242.516 74.2452 245.657 66.5965C247.842 61.1332 243.062 58.5381 239.92 54.4405C235.55 48.8406 231.179 43.104 226.945 37.5041C225.989 36.2748 225.169 35.1821 224.213 33.9529C219.843 47.065 213.969 60.0405 210.145 73.016C208.233 78.7525 209.735 80.1184 213.696 83.1232Z" fill="#FF4438"/>
<path d="M344.544 84.6258C349.188 79.9819 360.934 72.7429 360.524 65.0942C360.251 60.8601 356.427 54.4406 354.924 50.6163C352.739 45.0163 350.69 39.4164 348.778 33.8164C343.315 39.2798 337.988 45.0163 332.115 50.2065C328.563 53.348 327.881 52.5285 328.973 56.626C331.705 66.3235 339.763 76.2941 344.544 84.6258Z" fill="#FF4438"/>
<path d="M542.455 160.021C540.679 169.308 537.538 176.957 534.123 185.425C530.708 194.03 541.225 198.674 547.098 202.088C548.737 203.045 550.513 204.137 552.152 205.23C560.757 188.293 569.225 171.63 577.83 155.65C568.952 153.738 560.211 151.006 551.469 149.23C543.411 147.591 543.957 152.372 542.455 160.021Z" fill="#FF4438"/>
<path d="M456.406 99.1035C461.733 102.518 467.606 101.152 473.07 100.879C476.484 100.606 477.167 101.152 478.123 98.0108C479.216 94.8693 478.396 88.4499 478.533 85.0353C478.67 77.25 478.806 69.4647 479.079 61.6794C479.216 57.7184 479.216 53.8941 479.353 49.9331C465.694 57.5818 451.899 65.5037 438.104 73.8354C444.114 81.8938 448.211 93.9133 456.406 99.1035Z" fill="#FF4438"/>
<path d="M70.8291 235.824C76.2924 227.356 80.6631 218.888 76.5656 208.917C65.3657 218.615 51.0243 223.668 40.9171 234.322C33.5415 241.971 48.2926 256.312 52.117 263.141C58.5365 254.263 64.8193 245.249 70.8291 235.824Z" fill="#FF4438"/>
<path d="M109.756 131.747C111.668 133.25 119.726 131.064 121.638 129.699C124.507 127.65 128.331 120.411 127.648 116.587C126.965 112.899 119.59 109.074 116.995 106.889C112.078 102.655 107.161 98.5574 102.244 94.5964C103.609 101.835 105.112 109.211 106.614 116.45C107.161 119.182 107.57 129.972 109.756 131.747Z" fill="#FF4438"/>
<path d="M74.79 344.136C69.3266 356.019 63.4535 367.628 57.9901 379.101C68.3705 381.014 78.8875 382.379 89.2679 384.565C89.8143 374.594 94.5947 362.984 91.7264 352.741C90.3606 348.233 77.7948 337.58 74.79 344.136Z" fill="#FF4438"/>
<path d="M487.001 428.681C479.216 426.906 470.338 421.989 462.553 427.589C454.084 433.598 449.167 445.071 443.021 453.676C458.728 463.784 474.982 472.525 490.552 481.676C493.147 471.569 495.743 461.598 498.201 451.628C498.884 448.623 503.938 434.008 502.572 431.823C501.343 430.184 489.187 429.364 487.001 428.681Z" fill="#FF4438"/>
<path d="M549.421 313.541C545.323 313.268 538.767 320.234 535.079 322.282C528.25 326.107 530.435 329.248 532.757 335.941C535.762 344.546 537.811 353.424 539.86 362.165C552.425 353.56 563.762 343.316 575.508 334.165C569.498 330.204 564.035 324.877 558.435 320.097C555.84 317.912 552.562 313.678 549.421 313.541Z" fill="#FF4438"/>
<path d="M308.759 440.291C302.476 442.477 297.695 449.169 293.188 454.359C287.861 460.642 282.125 466.515 276.252 472.115C280.896 478.262 284.583 485.091 288.954 491.51C292.778 497.247 294.964 497.657 299.744 492.876C311.354 481.403 325.695 473.345 338.807 464.193C331.432 454.769 322.007 435.647 308.759 440.291Z" fill="#FF4438"/>
<path d="M155.921 426.906C147.726 421.716 146.77 441.52 146.36 446.984C145.814 453.54 144.721 460.096 144.311 466.652C144.038 471.159 143.219 476.349 148.409 473.345C153.462 470.476 157.833 466.379 162.75 463.237C166.575 460.779 171.901 460.096 171.765 454.769C171.492 449.306 167.121 443.296 164.389 439.062C161.931 435.511 159.336 428.955 155.921 426.906Z" fill="#FF4438"/>
<path d="M63.7265 347.414C59.629 355.882 55.6681 364.487 51.2974 372.545C48.9754 376.779 45.0145 384.428 48.8388 389.618C52.7998 395.082 62.6339 394.126 67.9606 394.945C72.8777 395.628 77.7947 396.721 82.7117 397.677C84.6239 398.087 87.6288 397.813 89.1312 399.589C93.2287 404.779 90.497 420.896 90.3605 426.769C90.0873 433.462 87.7654 444.116 90.6336 450.808C94.5946 459.686 106.068 452.037 110.985 449.579C119.589 445.345 129.014 443.296 137.892 439.335C137.892 448.213 136.799 456.818 135.98 465.559C135.433 472.115 134.341 481.676 139.531 487.276C145.131 493.286 151.96 488.232 156.74 484.818C163.023 480.31 169.579 476.349 176.135 472.252C181.599 487.549 188.838 502.164 195.394 516.915C197.579 521.832 200.994 534.125 205.501 536.856C210.281 539.725 217.52 530.983 220.935 528.115C232.272 518.554 243.062 507.9 254.671 498.339C257.266 496.154 259.998 494.105 262.457 491.647C264.096 490.008 266.144 486.866 268.057 485.774C269.696 484.954 269.286 484.135 270.925 484.818C272.701 485.637 274.886 491.1 275.979 492.876C279.666 499.022 283.627 508.174 289.774 511.178C296.33 514.456 302.339 508.72 307.393 504.622C317.773 496.291 328.837 489.461 339.354 481.266C343.315 478.262 344.271 475.667 347.958 479.354C352.466 483.725 356.017 490.008 360.114 494.925C364.212 499.705 368.583 503.939 372.953 508.447C377.461 513.227 382.924 523.744 388.934 525.52C398.221 528.388 407.782 507.627 412.699 500.661C419.255 491.374 425.811 482.086 432.231 472.935C435.509 468.291 436.738 466.789 441.246 468.974C446.026 471.296 450.533 474.847 455.177 477.442C465.421 483.452 474.709 491.51 485.226 496.427C488.64 498.066 493.148 500.388 496.562 496.564C500.66 491.92 500.796 481.266 502.026 475.53C503.665 468.291 505.44 460.915 506.806 453.676C507.762 448.759 507.625 440.018 512.816 438.379C517.46 436.877 524.016 439.608 528.386 440.291C535.352 441.384 542.318 442.34 549.284 443.023C565.127 444.389 557.615 425.95 555.157 416.799C552.971 408.467 550.923 400.135 548.464 391.94C547.645 389.209 542.181 378.965 543.137 375.823C543.684 374.048 547.645 372.545 548.874 371.726C552.015 369.677 554.884 367.082 557.752 364.76C564.171 359.57 570.591 354.38 576.874 349.189C580.015 346.594 590.259 340.038 589.576 335.394C589.166 332.526 584.113 329.521 582.337 328.019C575.371 322.146 567.996 316.546 560.757 310.536C576.464 300.019 591.625 289.092 607.195 279.395C611.976 276.39 618.395 273.931 619.625 267.785C621.4 259.863 613.342 255.902 607.742 252.078C593.947 242.927 581.654 230.498 568.679 219.025C567.176 217.659 562.259 215.064 561.713 212.878C560.893 209.873 563.762 206.732 565.128 204.41C567.996 199.083 570.727 193.483 573.459 188.157C576.737 182.01 579.879 175.727 583.157 169.718C585.752 164.937 591.215 157.698 587.391 151.415C584.249 146.225 576.874 146.498 572.093 145.542C564.581 144.04 557.069 141.991 549.693 139.942C553.108 126.967 557.342 114.401 561.303 101.835C563.488 94.7329 567.723 79.9818 555.43 81.3476C543.274 82.5769 531.801 86.811 519.372 87.9037C507.899 88.9963 497.655 93.5036 486.865 97.4646C487.138 85.8549 487.411 74.3818 487.684 62.7722C487.821 56.3527 491.645 37.9138 482.221 37.9138C475.118 37.9138 467.197 45.8357 461.323 49.2503C453.128 54.0308 444.797 60.3136 436.192 64.2746C429.363 67.5526 426.358 56.6259 422.397 50.7527C418.573 45.1528 412.016 29.4456 405.46 28.4895C398.221 27.3968 390.026 40.5089 385.246 45.1528C379.646 50.4796 374.046 55.9429 368.446 61.4063C365.988 54.5771 362.71 48.1576 360.524 41.1918C358.885 35.8651 357.929 25.7578 353.558 22.2066C348.505 18.1091 343.588 25.3481 340.31 29.1724C334.983 35.1821 329.246 40.6455 323.237 45.6991C317.91 36.1382 312.31 26.7139 307.256 17.0164C303.705 10.8701 299.061 -4.5639 291.003 1.30922C287.452 3.90432 284.447 9.64086 281.715 13.3286C278.027 18.3823 274.34 23.5725 270.788 28.7627C264.642 37.6406 258.632 46.7918 252.759 55.9429C246.749 48.704 240.74 41.3284 235.413 33.5431C232.272 29.0358 226.808 17.153 220.389 21.5237C214.925 25.2115 213.56 37.9138 211.921 43.9235C209.189 53.7576 205.091 63.0453 201.95 72.7428C191.296 64.9575 180.37 57.9917 169.443 51.5722C164.935 48.8406 153.462 38.7333 148.272 40.3723C140.897 42.5577 139.667 60.9966 138.302 67.416C135.57 80.3915 131.745 92.8207 129.697 105.796C122.048 98.5572 114.126 91.728 106.341 85.0354C102.79 82.0305 95.2775 75.2013 92.4092 83.533C90.2239 89.8158 92.6824 98.967 93.7751 104.704C95.4141 113.445 97.736 122.05 99.7848 130.791C87.6288 129.698 75.1996 130.928 62.907 131.201C58.5363 131.337 52.7998 130.928 51.0242 136.528C49.6583 140.762 51.7071 146.908 52.7998 150.596C56.4876 163.162 62.4973 175.044 66.868 187.61C68.507 192.254 72.0582 199.22 69.5997 203.864C67.4143 207.961 59.9022 211.239 56.2144 213.288C47.0632 218.888 34.0877 224.625 30.2634 235.824C25.6195 249.483 38.7316 257.951 43.2389 269.014C45.5608 274.614 40.0975 278.439 36.8194 282.536C33.2682 286.77 29.8536 291.004 26.3024 295.239C22.2049 300.156 18.244 305.073 14.0098 309.58C10.3221 313.677 5.81479 317.092 2.80993 321.599C0.351416 325.151 -1.42418 331.707 2.12701 335.668C5.81479 339.902 14.4196 339.219 19.2 339.902C34.0877 341.95 48.5657 346.867 63.7265 347.414ZM89.2678 384.565C78.8874 382.379 68.3704 381.014 57.99 379.101C63.5899 367.628 69.3265 356.155 74.7899 344.136C77.7947 337.58 90.3605 348.233 91.7263 352.741C94.5946 362.848 89.8141 374.594 89.2678 384.565ZM162.75 463.237C157.833 466.379 153.326 470.34 148.409 473.345C143.219 476.349 144.038 471.159 144.311 466.652C144.721 460.096 145.814 453.54 146.36 446.984C146.906 441.52 147.862 421.716 155.921 426.906C159.336 429.091 161.794 435.511 164.253 439.062C166.984 443.159 171.355 449.306 171.628 454.769C171.901 460.096 166.574 460.779 162.75 463.237ZM299.744 492.876C294.964 497.657 292.778 497.247 288.954 491.51C284.72 485.091 280.896 478.398 276.252 472.115C282.125 466.515 287.725 460.642 293.188 454.359C297.695 449.033 302.339 442.477 308.759 440.291C322.007 435.784 331.432 454.906 338.807 464.193C325.832 473.345 311.354 481.403 299.744 492.876ZM498.065 451.764C495.606 461.735 493.011 471.706 490.416 481.813C474.845 472.525 458.592 463.92 442.885 453.813C449.031 445.208 453.948 433.735 462.416 427.725C470.201 422.125 479.216 426.906 486.865 428.818C489.187 429.364 501.343 430.184 502.435 432.096C503.801 434.145 498.884 448.759 498.065 451.764ZM575.508 334.302C563.762 343.453 552.425 353.833 539.859 362.302C537.811 353.424 535.762 344.546 532.757 336.077C530.435 329.385 528.25 326.107 535.079 322.419C538.767 320.37 545.323 313.404 549.42 313.677C552.698 313.814 555.84 318.048 558.435 320.234C564.035 325.014 569.498 330.341 575.508 334.302ZM551.469 149.23C560.347 151.006 569.088 153.737 577.83 155.649C569.225 171.63 560.757 188.293 552.152 205.23C550.513 204.137 548.737 203.044 547.098 202.088C541.225 198.674 530.708 194.03 534.123 185.425C537.537 176.82 540.679 169.308 542.454 160.02C543.957 152.371 543.411 147.591 551.469 149.23ZM479.216 50.0698C479.079 54.0308 479.079 57.8551 478.943 61.8161C478.806 69.6014 478.67 77.3867 478.396 85.172C478.26 88.5866 479.079 94.8695 477.987 98.1475C476.894 101.289 476.348 100.879 472.933 101.016C467.47 101.426 461.597 102.655 456.27 99.2402C448.075 93.9134 443.977 82.0305 437.831 73.9721C451.762 65.6404 465.557 57.582 479.216 50.0698ZM332.115 50.2064C337.851 45.0162 343.315 39.2797 348.778 33.8163C350.69 39.5528 352.739 45.0162 354.924 50.6161C356.427 54.4405 360.388 60.86 360.524 65.0941C360.934 72.7428 349.324 79.9818 344.544 84.6256C339.763 76.1574 331.705 66.3233 328.973 56.6259C328.017 52.5283 328.7 53.3478 332.115 50.2064ZM210.008 73.1526C213.969 60.0405 219.706 47.065 224.076 34.0895C225.033 35.3187 225.852 36.4114 226.808 37.6406C231.042 43.2406 235.413 48.9771 239.784 54.5771C242.925 58.6746 247.706 61.2697 245.52 66.7331C242.515 74.3818 234.867 92.4109 226.262 91.0451C221.755 90.3622 217.247 85.8549 213.56 83.2598C209.735 80.1184 208.233 78.7525 210.008 73.1526ZM116.994 106.889C119.453 109.074 126.965 112.899 127.648 116.586C128.331 120.411 124.507 127.65 121.638 129.698C119.726 131.064 111.668 133.25 109.755 131.747C107.434 129.972 107.16 119.181 106.614 116.45C105.112 109.211 103.609 101.835 102.243 94.5963C107.297 98.4207 112.214 102.518 116.994 106.889ZM40.917 234.185C51.0242 223.532 65.3655 218.478 76.5655 208.781C80.663 218.751 76.2923 227.356 70.8289 235.688C64.8192 245.112 58.5363 254.263 51.9803 262.868C48.2925 256.176 33.4048 241.834 40.917 234.185ZM84.2142 239.649C92.819 224.351 85.1703 208.234 79.2971 194.439C75.6094 185.835 73.6972 176.41 70.8289 167.532C67.8241 158.245 64.1363 149.503 60.8583 140.625C74.6533 139.669 88.5849 138.986 102.243 140.352C111.258 141.172 123.824 145.542 131.199 135.845C138.438 126.284 137.345 110.03 138.984 98.6938C141.306 82.85 147.043 67.6892 150.731 51.982C166.165 60.7234 182.145 69.738 196.896 80.9379C206.321 88.0403 218.886 110.986 232.681 105.66C238.828 103.338 241.286 93.9134 243.745 87.6305C247.432 78.2062 253.306 70.5575 258.632 62.499C270.105 45.2894 281.988 28.4895 293.871 11.8262C301.793 25.8944 309.715 39.9626 317.637 54.0308C321.325 60.5868 325.012 67.1429 328.563 73.6989C331.841 79.572 334.983 88.3134 339.217 93.367C344.817 100.196 349.734 92.6841 354.105 88.1768C359.295 82.7135 366.397 81.0744 371.997 76.4306C384.426 66.1868 393.031 50.6161 404.641 39.6894C414.612 54.5771 424.992 69.1916 434.553 84.0793C442.065 95.689 451.216 112.899 464.601 115.084C479.626 117.542 493.557 104.021 506.806 99.9231C514.045 97.6011 521.83 97.6012 529.206 96.0987C537.264 94.4597 545.323 92.5475 553.518 91.1817C548.328 109.621 542.181 127.923 536.854 147.045C534.396 155.649 533.303 164.801 530.298 173.132C527.703 180.098 518.279 187.747 523.06 195.805C527.02 202.498 535.625 204.82 541.498 208.371C549.557 213.151 556.796 219.981 563.898 225.99C578.922 238.966 593.537 251.805 608.425 263.414C586.844 276.663 564.991 290.868 543.547 306.575C536.718 311.629 521.83 309.99 518.279 319.824C516.23 325.56 520.464 331.707 522.786 336.077C525.791 341.541 527.43 347.004 528.933 353.287C535.216 378.965 542.454 403.687 548.874 428.272C533.303 426.496 516.913 425.95 501.616 422.125C488.64 418.984 471.977 405.189 458.455 417.072C452.309 422.535 448.211 431.14 443.431 438.242C438.924 444.935 433.87 451.218 429.226 457.637C416.66 474.71 403.958 491.783 391.119 508.72C375.685 492.193 360.114 475.393 345.09 457.637C333.89 444.525 319.003 423.218 300.973 430.594C283.081 437.833 271.881 462.828 258.086 476.349C242.106 492.057 224.35 505.305 207.96 519.647C200.447 503.12 192.116 487.003 185.696 470.067C179.96 454.769 174.496 440.837 166.165 427.179C163.16 422.399 161.111 415.979 155.511 415.16C149.638 414.204 143.902 419.257 139.121 421.852C126.009 428.955 111.804 433.052 98.1458 438.106C98.0092 421.579 95.5507 403.413 97.5994 387.296C99.2384 374.321 111.668 353.424 100.877 340.994C92.2726 331.16 74.9264 333.346 64.4094 333.072C46.6535 332.663 29.3073 328.019 11.9611 324.877C34.9072 298.243 64.9558 273.795 84.2142 239.649Z" fill="black"/>
</svg>
